<svg height="300.021498015873" version="1.1" width="323" xmlns="http://www.w3.org/2000/svg" style="overflow: hidden; position: relative;" viewBox="0.3172321428571429 0.3172321428571429 323 300.021498015873" preserveAspectRatio="xMinYMin"><rect x="-2015.01" y="-1871.59" width="5040" height="4681.45" r="0" rx="0" ry="0" fill="#ffffff" stroke="none" transform="matrix(0.3204,0,0,0.3204,0,0)" stroke-width="3.120743034055727" style="-webkit-tap-highlight-color: rgba(0, 0, 0, 0); fill-opacity: 0;" fill-opacity="0"/><path fill="#88a4bc" stroke="#ffffff" d="M997.1,437.1L995,444.8L993.6,443.5L994.5,436.3L997.1,437.1ZM994.7,433.8L993.1,431.6L993.2,426.5L995.3000000000001,426.1L994.3000000000001,430.6L994.7,433.8ZM985.8000000000001,390.90000000000003L984.0000000000001,390.3L983.3000000000001,385.5L985.4000000000001,378.7L984.8000000000001,375.7L988.5000000000001,372.4L989.8000000000001,368.4L988.3000000000001,364.09999999999997L990.8000000000001,363.4L991.2,368.2L992.5,372.2L987.3,384.4L985.8,390.9ZM938.4000000000001,329.90000000000003L942.1000000000001,336.00000000000006L939.4000000000001,336.6000000000001L935.7,331.00000000000006L938.4000000000001,329.90000000000003ZM819.1000000000001,191.80000000000004L820.7000000000002,196.10000000000005L818.0000000000001,197.40000000000006L815.1000000000001,193.30000000000007L819.1000000000001,191.80000000000007ZM653.1000000000001,149.10000000000002L651.2000000000002,151.40000000000003L644.6000000000001,153.50000000000003L644.6000000000001,150.50000000000003L647.8000000000002,146.40000000000003L655.1000000000001,144.60000000000002L657.8000000000002,147.60000000000002L653.1000000000001,149.10000000000002ZM996.5000000000001,456.8L993.2000000000002,459.3L988.6000000000001,459.90000000000003L986.8000000000002,462.50000000000006L980.1000000000001,461.80000000000007L977.8000000000002,462.70000000000005L971.4000000000002,460.00000000000006L969.5000000000002,462.30000000000007L963.4000000000002,464.9000000000001L958.5000000000002,467.6000000000001L961.0000000000002,472.4000000000001L960.0000000000002,477.1000000000001L957.8000000000002,478.50000000000006L953.5000000000002,479.1000000000001L952.7000000000003,477.50000000000006L948.4000000000003,479.40000000000003L947.8000000000003,481.6L944.5000000000003,484.6L940.5000000000003,477.8L937.7000000000004,476.5L936.1000000000004,473.9L931.3000000000004,471.09999999999997L927.8000000000004,470.59999999999997L921.8000000000004,470.9L918.7000000000004,468.5L914.0000000000003,468.3L906.7000000000004,469.6L902.4000000000004,469.8L898.4000000000004,468.90000000000003L894.0000000000005,472.90000000000003L887.8000000000004,477.20000000000005L885.2000000000004,480.6L689.7000000000004,480.6L689.7000000000004,397.70000000000005L616.2000000000004,397.70000000000005L616.2000000000004,148.70000000000005L622.1000000000004,152.90000000000003L628.5000000000003,154.70000000000005L631.5000000000003,154.40000000000003L636.3000000000003,156.50000000000003L640.9000000000003,157.50000000000003L643.4000000000003,160.40000000000003L644.4000000000003,164.40000000000003L646.7000000000003,168.50000000000003L651.5000000000002,169.90000000000003L657.6000000000003,174.00000000000003L662.6000000000003,175.80000000000004L666.0000000000002,178.10000000000005L670.3000000000002,178.20000000000005L677.7000000000002,176.10000000000005L685.5000000000001,170.70000000000005L688.9000000000001,160.50000000000006L695.1000000000001,151.00000000000006L696.8000000000002,146.30000000000007L699.8000000000002,136.30000000000007L699.3000000000002,132.10000000000008L700.8000000000002,124.40000000000008L705.0000000000002,110.50000000000007L704.5000000000002,105.30000000000007L702.5000000000002,95.60000000000007L704.3000000000002,87.60000000000007L701.5000000000002,81.80000000000007L701.3000000000002,78.60000000000007L702.8000000000002,72.40000000000006L705.5000000000002,65.00000000000006L704.7000000000003,57.00000000000006L708.9000000000003,52.900000000000055L712.5000000000003,51.900000000000055L710.6000000000004,47.900000000000055L706.3000000000004,45.70000000000005L706.6000000000004,42.20000000000005L709.4000000000003,35.400000000000055L713.0000000000003,30.700000000000056L717.6000000000004,15.100000000000056L718.3000000000004,7.000000000000057L722.2000000000004,5.400000000000057L725.4000000000004,1.0000000000000568L729.0000000000005,2.000000000000057L727.8000000000004,5.200000000000057L731.9000000000004,8.600000000000056L734.7000000000004,16.000000000000057L735.6000000000004,28.900000000000055L738.4000000000003,31.300000000000054L743.1000000000004,32.20000000000005L741.3000000000004,37.60000000000005L741.4000000000004,41.00000000000005L744.9000000000004,43.30000000000005L748.6000000000005,49.40000000000005L751.3000000000005,60.90000000000005L751.7000000000005,66.10000000000005L753.1000000000005,69.60000000000005L752.2000000000005,77.20000000000005L754.5000000000005,82.80000000000004L757.3000000000004,92.50000000000004L762.3000000000004,95.40000000000005L768.4000000000004,91.30000000000005L774.8000000000004,89.60000000000005L777.6000000000004,92.70000000000005L779.1000000000004,96.20000000000005L794.8000000000004,107.60000000000005L793.9000000000004,111.50000000000006L794.9000000000004,117.40000000000006L794.4000000000004,121.20000000000006L796.3000000000004,126.90000000000006L797.0000000000005,131.50000000000006L799.0000000000005,135.90000000000006L798.2000000000005,144.90000000000006L801.2000000000005,150.50000000000006L806.3000000000005,157.00000000000006L810.1000000000005,157.80000000000007L809.9000000000004,161.90000000000006L813.5000000000005,169.90000000000006L815.4000000000004,176.40000000000006L814.1000000000005,185.20000000000007L812.8000000000005,190.30000000000007L813.1000000000005,192.80000000000007L817.7000000000005,199.00000000000006L820.4000000000005,200.10000000000005L819.5000000000006,207.60000000000005L824.1000000000006,213.70000000000005L832.6000000000006,217.80000000000004L836.8000000000006,218.30000000000004L840.2000000000006,221.90000000000003L843.6000000000006,222.40000000000003L847.0000000000006,221.50000000000003L851.1000000000006,227.90000000000003L855.0000000000006,231.70000000000005L859.2000000000006,234.30000000000004L863.3000000000006,235.00000000000003L870.3000000000006,240.00000000000003L876.0000000000007,241.50000000000003L879.9000000000007,245.30000000000004L883.0000000000007,250.30000000000004L879.2000000000007,249.90000000000003L878.1000000000007,252.90000000000003L880.6000000000007,256.90000000000003L887.3000000000008,262.90000000000003L890.8000000000008,267.20000000000005L893.9000000000008,276.40000000000003L896.9000000000008,279.1L897.1000000000008,284L900.4000000000008,297.1L903.1000000000008,301.90000000000003L906.0000000000008,300.6L910.5000000000008,304.1L908.9000000000008,298.40000000000003L909.9000000000008,295.1L912.2000000000007,294.6L916.1000000000007,300.1L923.6000000000007,305.1L924.3000000000008,300.40000000000003L926.8000000000008,301.3L929.1000000000007,305.5L929.5000000000007,321.5L931.0000000000007,329L940.6000000000007,338.9L947.1000000000007,343.9L951.8000000000008,344.59999999999997L957.0000000000008,348.9L960.7000000000008,356.79999999999995L962.5000000000008,359.59999999999997L970.5000000000008,365.2L971.7000000000008,369.5L975.4000000000009,376L978.7000000000008,377.9L981.8000000000009,382.2L981.9000000000009,389.2L984.6000000000009,394.09999999999997L987.9000000000009,396.7L985.9000000000009,406L987.8000000000009,424.6L986.7000000000008,430.5L988.7000000000008,436.3L993.3000000000009,446.3L995.0000000000009,454.1L996.5000000000009,456.8Z" class="sm_state_QL" name="QLD1" id="QLD1" opacity="1" stroke-opacity="1" stroke-width="1.8900000000000001" stroke-linejoin="round" transform="matrix(0.3204,0,0,0.3204,0,0)" style="-webkit-tap-highlight-color: rgba(0, 0, 0, 0); opacity: 1; cursor: pointer; stroke-opacity: 1; stroke-linejoin: round; fill-opacity: 1;" fill-opacity="1"/><path fill="#88a4bc" stroke="#ffffff" d="M593.9,128.8L590.1999999999999,127.10000000000001L591.9,124.2L593.9,128.8ZM584.6,78.70000000000002L586.8000000000001,79.70000000000002L585.4000000000001,85.50000000000001L588.8000000000001,88.70000000000002L589.0000000000001,91.10000000000002L583.0000000000001,90.80000000000003L576.0000000000001,89.50000000000003L577.6000000000001,86.90000000000003L577.5000000000001,80.30000000000004L583.2000000000002,75.50000000000004L584.6000000000001,78.70000000000005ZM431.3,25.30000000000002L433.3,25.90000000000002L432.3,29.20000000000002L427.8,27.60000000000002L423.2,28.90000000000002L421.09999999999997,28.00000000000002L421.79999999999995,25.300000000000022L424.9,24.800000000000022L423.79999999999995,20.300000000000022L426.19999999999993,17.300000000000022L428.29999999999995,16.70000000000002L431.29999999999995,25.30000000000002ZM616.2,148.70000000000002L616.2,397.70000000000005L395.50000000000006,397.70000000000005L395.50000000000006,105.80000000000007L396.90000000000003,106.10000000000007L401.3,111.10000000000007L402.1,105.80000000000007L406.8,107.30000000000007L409.40000000000003,110.20000000000007L411.1,105.30000000000007L414,103.70000000000007L410.3,100.10000000000008L410.40000000000003,97.90000000000008L404.8,93.60000000000008L406.8,89.10000000000008L412.90000000000003,83.20000000000007L416.1,72.90000000000008L418.5,71.10000000000008L423.3,69.80000000000008L426.40000000000003,66.10000000000008L423.3,62.10000000000008L424.1,57.40000000000008L427.8,55.50000000000008L429.8,50.60000000000008L435.2,49.60000000000008L435.3,44.20000000000008L442,46.50000000000008L441.4,42.60000000000008L445.09999999999997,41.90000000000008L445.7,38.10000000000008L449.9,37.80000000000008L455.29999999999995,40.30000000000008L462.29999999999995,40.30000000000008L466.29999999999995,39.20000000000008L470.59999999999997,40.400000000000084L475.29999999999995,38.000000000000085L478.19999999999993,39.30000000000008L483.3999999999999,36.10000000000008L484.49999999999994,34.20000000000008L484.49999999999994,29.20000000000008L485.59999999999997,24.50000000000008L480.7,20.600000000000083L475.9,20.00000000000008L472.29999999999995,20.800000000000082L464.4,15.100000000000083L468.09999999999997,12.800000000000082L473.9,15.900000000000082L475.5,13.400000000000082L482.7,17.50000000000008L485.8,21.00000000000008L490.1,18.100000000000083L494.20000000000005,19.600000000000083L498.1,26.000000000000085L502.3,26.500000000000085L506.6,28.700000000000085L515.7,29.100000000000083L523.9000000000001,33.500000000000085L531.3000000000001,34.900000000000084L536.0000000000001,33.000000000000085L539.0000000000001,35.900000000000084L543.3000000000001,38.20000000000008L547.9000000000001,38.900000000000084L551.2,36.60000000000009L556,34.900000000000084L561.9,31.000000000000085L564.4,33.20000000000009L559.8,37.10000000000009L560.8,39.400000000000084L565.5999999999999,37.20000000000008L567.3,38.10000000000008L569.0999999999999,43.90000000000008L573.4999999999999,44.200000000000074L575.1999999999999,41.00000000000007L573.6999999999999,36.60000000000007L577.9999999999999,32.10000000000007L580.3999999999999,32.300000000000075L582.0999999999999,36.700000000000074L584.6999999999999,39.00000000000007L589.0999999999999,39.50000000000007L590.3,42.10000000000007L580.3,53.00000000000007L581.6999999999999,58.60000000000007L578.4,64.10000000000008L574.3,61.90000000000008L565.3,66.10000000000008L565.4,74.10000000000008L566.9,78.90000000000008L564.3,87.60000000000008L560.8,90.90000000000008L552.5,102.90000000000008L553.7,107.10000000000008L555.6,109.00000000000009L563,113.10000000000008L566.4,115.90000000000008L572.1,119.30000000000008L574.3000000000001,123.50000000000009L581.4000000000001,127.00000000000009L584.4000000000001,126.50000000000009L584.2,130.3000000000001L586.3000000000001,131.8000000000001L591.7,131.4000000000001L599,136.2000000000001L608.9,140.4000000000001L616.1999999999999,148.7000000000001ZM435.20000000000005,17.700000000000017L438.50000000000006,17.900000000000016L442.40000000000003,16.000000000000018L445.1,16.700000000000017L451.1,13.100000000000017L455.20000000000005,16.100000000000016L457.70000000000005,19.200000000000017L453.90000000000003,22.900000000000016L451.70000000000005,26.100000000000016L443.30000000000007,31.500000000000014L435.80000000000007,26.900000000000013L432.6000000000001,23.80000000000001L430.4000000000001,19.50000000000001L429.1000000000001,13.70000000000001L430.50000000000006,12.90000000000001L435.20000000000005,17.70000000000001ZM483.6,15.900000000000016L481.20000000000005,12.400000000000016L480.90000000000003,9.200000000000017L483.6,8.300000000000017L484.5,12.500000000000018L483.6,15.900000000000018Z" class="sm_state_NT" name="NT1" id="NT1" opacity="1" stroke-opacity="1" stroke-width="1.8900000000000001" stroke-linejoin="round" transform="matrix(0.3204,0,0,0.3204,0,0)" style="-webkit-tap-highlight-color: rgba(0, 0, 0, 0); opacity: 1; cursor: pointer; stroke-opacity: 1; stroke-linejoin: round; fill-opacity: 1;" fill-opacity="1"/><path fill="#88a4bc" stroke="#ffffff" d="M927.6,657.9L925.3000000000001,660.1L924.2,660.8000000000001L919.5,671.9000000000001L915.1,679.4000000000001L913.5,688.1000000000001L911.9,701.2000000000002L909.4,710.3000000000002L909.1,717.5000000000002L910,723.0000000000002L908.9,730.4000000000002L866.6,709.0000000000002L864.6,708.2000000000003L866.1,703.5000000000002L864.9,701.1000000000003L862.1,690.0000000000002L860.7,685.9000000000002L855.5,683.1000000000003L850,684.0000000000002L846.8,683.6000000000003L844.6999999999999,686.6000000000003L840.5999999999999,685.6000000000003L837.8999999999999,687.7000000000003L834.1999999999998,687.5000000000002L826.6999999999998,684.6000000000003L823.7999999999998,684.3000000000003L820.1999999999998,686.1000000000003L817.5999999999998,686.2000000000003L807.6999999999998,683.8000000000003L802.1999999999998,680.3000000000003L798.2999999999998,679.5000000000003L789.7999999999998,680.3000000000003L786.7999999999998,682.1000000000003L785.6999999999998,687.7000000000003L782.7999999999998,688.3000000000003L779.5999999999998,687.2000000000003L773.6999999999998,681.6000000000003L770.2999999999998,676.3000000000003L762.4999999999999,670.2000000000003L756.1999999999999,666.7000000000003L753.0999999999999,664.2000000000003L751.9999999999999,661.4000000000003L747.9999999999999,658.2000000000003L747.5999999999999,650.8000000000003L746.6999999999999,648.0000000000003L744.0999999999999,646.4000000000003L737.8999999999999,645.1000000000004L732.3999999999999,642.4000000000003L730.4999999999999,646.6000000000004L728.1999999999999,647.6000000000004L724.5999999999999,642.2000000000004L723.3999999999999,634.5000000000003L718.0999999999999,629.7000000000004L712.3999999999999,628.1000000000004L708.2999999999998,627.9000000000003L704.0999999999998,630.3000000000003L701.1999999999998,630.0000000000003L697.4999999999998,627.9000000000003L690.2999999999997,625.9000000000003L689.6999999999997,480.6000000000003L885.1999999999997,480.6000000000003L887.7999999999997,477.20000000000033L893.9999999999998,472.9000000000003L898.3999999999997,468.9000000000003L902.3999999999997,469.8000000000003L906.6999999999997,469.6000000000003L913.9999999999997,468.3000000000003L918.6999999999997,468.5000000000003L921.7999999999997,470.90000000000026L927.7999999999997,470.60000000000025L931.2999999999997,471.10000000000025L936.0999999999997,473.90000000000026L937.6999999999997,476.5000000000003L940.4999999999997,477.8000000000003L944.4999999999997,484.6000000000003L947.7999999999996,481.6000000000003L948.3999999999996,479.4000000000003L952.6999999999996,477.50000000000034L953.4999999999995,479.10000000000036L957.7999999999995,478.50000000000034L959.9999999999995,477.10000000000036L960.9999999999995,472.4000000000004L958.4999999999995,467.60000000000036L963.3999999999995,464.9000000000004L969.4999999999995,462.30000000000035L971.3999999999995,460.00000000000034L977.7999999999995,462.70000000000033L980.0999999999995,461.80000000000035L986.7999999999995,462.50000000000034L988.5999999999995,459.9000000000003L993.1999999999995,459.3000000000003L996.4999999999994,456.8000000000003L997.9999999999994,459.4000000000003L997.7999999999994,467.6000000000003L998.9999999999994,471.5000000000003L998.6999999999995,476.6000000000003L995.1999999999995,482.1000000000003L992.3999999999995,488.8000000000003L992.3999999999995,494.6000000000003L990.4999999999995,505.8000000000003L988.4999999999995,513.5000000000003L984.5999999999996,524.9000000000003L985.0999999999996,534.7000000000003L982.4999999999995,549.8000000000003L978.5999999999996,559.9000000000003L973.0999999999996,567.4000000000003L972.6999999999996,573.1000000000004L970.8999999999996,578.8000000000004L965.3999999999996,583.8000000000004L963.3999999999996,588.1000000000004L958.1999999999996,589.9000000000003L954.7999999999996,592.3000000000003L949.6999999999996,601.1000000000003L946.6999999999996,605.4000000000002L945.3999999999996,610.5000000000002L941.9999999999997,612.2000000000003L942.7999999999996,615.7000000000003L941.6999999999996,622.4000000000003L940.4999999999995,625.5000000000003L933.8999999999995,633.4000000000003L931.6999999999995,639.4000000000003L929.4999999999994,651.1000000000004L930.1999999999995,654.2000000000004L927.3999999999995,655.6000000000004L927.5999999999996,657.9000000000003ZM895.7,664.1999999999999L892.1,662.4999999999999L890.5,659.6999999999999L888.4,658.6999999999999L881.6,663.6999999999999L880.2,669.1999999999999L880.7,675.6999999999999L883.1,676.8L884.5,681.0999999999999L887.1,681.8999999999999L888.4,679.2999999999998L887.9,672.6999999999998L890.4,665.8999999999999L895.6999999999999,664.1999999999998Z" class="sm_state_NS" name="NSW1" id="NSW1" opacity="1" stroke-opacity="1" stroke-width="1.8900000000000001" stroke-linejoin="round" transform="matrix(0.3204,0,0,0.3204,0,0)" style="-webkit-tap-highlight-color: rgba(0, 0, 0, 0); opacity: 1; cursor: pointer; stroke-opacity: 1; stroke-linejoin: round; fill-opacity: 1;" fill-opacity="1"/><path fill="#88a4bc" stroke="#ffffff" d="M606.2,676.6L612.1,677.3000000000001L614.4,676.2L617.3,677.1L619.1999999999999,680L616.4,681.7L612.1,680.5L608.1,681.4L606.1,685.3L602.6,686.8L601,685.0999999999999L596.8,683.9999999999999L595.3,685.6999999999999L585.5999999999999,685.4999999999999L580.3999999999999,681.1999999999999L582.7999999999998,676.9L593.8999999999999,674.3L599.7999999999998,672.1999999999999L604.5999999999998,672.4999999999999L607.1999999999998,674.0999999999999L606.1999999999998,676.5999999999999ZM689.7,480.6L690.3000000000001,625.9000000000001L688.9000000000001,624.7L688.9000000000001,748.2L680.5000000000001,746.8000000000001L674.7000000000002,742.7L670.4000000000002,734.8000000000001L662.1000000000003,725.8000000000001L659.9000000000002,722.6L658.8000000000002,716.8000000000001L661.4000000000002,707.3000000000001L661.7000000000002,704.6L658.5000000000001,695.8000000000001L654.1000000000001,687.4000000000001L646.7000000000002,679.3000000000001L641.6000000000001,675.1L642.3000000000002,672.3000000000001L645.0000000000002,670.1L647.8000000000002,672.7L648.6000000000001,667.2L645.4000000000001,664.8000000000001L638.6000000000001,669.0000000000001L637.6000000000001,670.5000000000001L634.0000000000001,670.9000000000001L628.9000000000001,673.7L620.7,672.8000000000001L622.3000000000001,669.0000000000001L625.9000000000001,664.1000000000001L628.7,655.1000000000001L628.2,647.3000000000002L626.8000000000001,644.1000000000001L622.6,637.7000000000002L618.3000000000001,629.6000000000001L616.4000000000001,634.5000000000001L614.2,638.1000000000001L613.1,646.2000000000002L608.6,658.6000000000001L602.9,658.3000000000002L595.1999999999999,661.4000000000002L588.8,661.5000000000002L592,651.8000000000002L601.2,651.8000000000002L603.7,642.3000000000002L602.9000000000001,635.8000000000002L603.7,629.4000000000002L607.6,620.4000000000002L610.8000000000001,615.8000000000002L614.5000000000001,612.2000000000002L612.5000000000001,601.1000000000001L616.0000000000001,597.9000000000001L614.0000000000001,588.5000000000001L610.8000000000001,582.9000000000001L611.0000000000001,590.0000000000001L608.3000000000001,594.5000000000001L602.5000000000001,600.8000000000001L600.3000000000001,607.8000000000001L597.4000000000001,613.7L594.8000000000001,615.8000000000001L590.1,617.2L582.7,621.5L577.7,625.5L570.1,637.3L564.4,644.1999999999999L565.9,647.4L567.1,652.6999999999999L565.1,653.1999999999999L562,650.3L558.5,652.5999999999999L554.4,647.0999999999999L548.1999999999999,641.8L553.5999999999999,641.8L550.1999999999999,630.4L547.0999999999999,621.8L539.8999999999999,613.5999999999999L537.4999999999999,604.8L532.9999999999999,600.6999999999999L525.4999999999999,599.9999999999999L522.2999999999998,594.5999999999999L520.4999999999999,587.8L523.5999999999999,587.3L523.8,582L516.4,578L512.9,573.9L507.09999999999997,571.4L498.79999999999995,571.4L487.59999999999997,564.8L484.9,564.5999999999999L477,566.6999999999999L474.3,566.3L462.2,557.3L454.2,553.0999999999999L448.09999999999997,551.4999999999999L439.2,554.6999999999999L423.2,553.9L400.09999999999997,556.3L395.49999999999994,557.1999999999999L395.49999999999994,397.69999999999993L616.1999999999999,397.69999999999993L689.6999999999999,397.69999999999993L689.6999999999999,480.5999999999999Z" class="sm_state_SA" name="SA1" id="SA1" opacity="1" stroke-opacity="1" stroke-width="1.8900000000000001" stroke-linejoin="round" transform="matrix(0.3204,0,0,0.3204,0,0)" style="-webkit-tap-highlight-color: rgba(0, 0, 0, 0); opacity: 1; cursor: pointer; stroke-opacity: 1; stroke-linejoin: round; fill-opacity: 1;" fill-opacity="1"/><path fill="#88a4bc" stroke="#ffffff" d="M845.5,920.7L844.4,924.2L840.8,921.8000000000001L844.4,916.8000000000001L845.5,920.7ZM847.4,915.4000000000001L845.3,915.2L844.5999999999999,912.2L846.4999999999999,911.3000000000001L847.3999999999999,915.4000000000001ZM788.8,834.4000000000001L794.6999999999999,833.9000000000001L798.3,836.7L805.6999999999999,840.1L807.9,842.1L815,845.2L820,846.6L826.3,846L830,843.9L833.3,843.1999999999999L836.5,841.0999999999999L842.1,840.8L844.6,839.9L847.9,841.4L852,836.3L858.2,837.1999999999999L860.5,834.1999999999999L866.6,836.5999999999999L868.5,839.5999999999999L868.3,845.0999999999999L868.9,852.6999999999999L868.4,856.4999999999999L868.3,867.9999999999999L868.6999999999999,875.3999999999999L865.8,876.1999999999998L862.9,879.6999999999998L861.9,882.6999999999998L861.5,888.4999999999998L859.4,893.0999999999998L859.1999999999999,901.1999999999998L860.3,905.9999999999998L860.8,912.5999999999998L856,914.6999999999998L852.7,907.9999999999998L855.8000000000001,907.4999999999998L856.4000000000001,904.8999999999997L850.9000000000001,902.1999999999997L850.2,906.4999999999997L847.9000000000001,908.4999999999997L846.8000000000001,903.7999999999996L843.2,909.6999999999996L842.8000000000001,914.5999999999996L838.7,916.5999999999996L836.9000000000001,919.7999999999996L835.7,924.2999999999996L833.7,927.9999999999997L829.4000000000001,927.5999999999997L825.7,924.4999999999997L816.8000000000001,924.5999999999997L813.3000000000001,925.7999999999997L811.7,916.6999999999997L809.2,917.1999999999997L807.4000000000001,915.5999999999997L802.7,907.2999999999997L799.7,904.8999999999997L794.3000000000001,892.0999999999998L792.6,881.6999999999998L796.9,885.2999999999998L796.6,881.5999999999998L793.5,880.5999999999998L793.6,874.6999999999998L789.1,868.3999999999999L785.7,862.3999999999999L782.3000000000001,854.9999999999999L780.3000000000001,847.4999999999999L779.1,840.6999999999999L780.6,834.3L783.3000000000001,832.3L788.8000000000001,834.4ZM869.3,818.9000000000001L872.9,823.0000000000001L863.8,823.6000000000001L862.6999999999999,820.5000000000001L866.1999999999999,820.6000000000001L869.3,818.9000000000001ZM861.3,801.3000000000001L865.6999999999999,807.1L868.5999999999999,808.6L869.1999999999999,813.7L866.4999999999999,816.6L863.8999999999999,817.5L858.5999999999999,809.5L857.3999999999999,803.7L859.6999999999998,800.3000000000001L861.2999999999998,801.3000000000001ZM761.5,812.8000000000001L759.3,806.0000000000001L759.8,800.7000000000002L763.3,795.7000000000002L765.5,797.5000000000001L766.7,807.6000000000001L766,809.8000000000002L761.5,812.8000000000002Z" class="sm_state_TS" name="TAS1" id="TAS1" opacity="1" stroke-opacity="1" stroke-width="1.8900000000000001" stroke-linejoin="round" transform="matrix(0.3204,0,0,0.3204,0,0)" style="-webkit-tap-highlight-color: rgba(0, 0, 0, 0); opacity: 1; cursor: pointer; stroke-opacity: 1; stroke-linejoin: round; fill-opacity: 1;" fill-opacity="1"/><path fill="#88a4bc" stroke="#ffffff" d="M799.7,757L796,759.1L795,755.9L799.7,757ZM908.9000000000001,730.4L905.7,731.9L899.7,737.5L893.1,739.8L884.4,739.4L867.6999999999999,740.6999999999999L858.3,743.9L852.3,747.6999999999999L846.5,752.8L833.3,766.6999999999999L822.9,768.1999999999999L819.4,767.8L817.6,770.4L820.5,773.9L823.7,772.1999999999999L824.1,779.3L822.1,781.9L816.1,773L814,772L810.7,774.2L807.1,766.8000000000001L802.6,766.5000000000001L797.5,762.7000000000002L799.1,758.9000000000002L801,758.2000000000002L799.4,753.5000000000001L794.9,753.3000000000001L792.4,757.9000000000001L786.8,761.6000000000001L780.8,756.5000000000001L785.5999999999999,756.7000000000002L789.3999999999999,752.3000000000002L790.6999999999998,748.8000000000002L787.3999999999999,744.4000000000002L785.0999999999999,742.8000000000002L776.3999999999999,748.3000000000002L779.4999999999999,752.5000000000002L776.5999999999999,754.8000000000002L771.3,756.8000000000002L765.6999999999999,760.4000000000002L758.5999999999999,767.8000000000002L751.8999999999999,771.6000000000001L744.2999999999998,769.2000000000002L740.6999999999998,766.1000000000001L734.7999999999998,764.1000000000001L729.1999999999998,760.0000000000001L722.5999999999998,757.5000000000001L718.7999999999998,758.4000000000001L712.3999999999999,754.8000000000001L707.4999999999999,754.4000000000001L704.1999999999999,758.0000000000001L700.0999999999999,757.3000000000001L694.8999999999999,751.3000000000001L688.8999999999999,748.2L688.8999999999999,624.7L690.2999999999998,625.9000000000001L697.4999999999999,627.9000000000001L701.1999999999999,630.0000000000001L704.0999999999999,630.3000000000001L708.3,627.9000000000001L712.4,628.1000000000001L718.1,629.7000000000002L723.4,634.5000000000001L724.6,642.2000000000002L728.2,647.6000000000001L730.5,646.6000000000001L732.4,642.4000000000001L737.9,645.1000000000001L744.1,646.4000000000001L746.7,648.0000000000001L747.6,650.8000000000001L748,658.2L752,661.4000000000001L753.1,664.2L756.2,666.7L762.5,670.2L770.3,676.3000000000001L773.6999999999999,681.6L779.5999999999999,687.2L782.8,688.3000000000001L785.6999999999999,687.7L786.8,682.1L789.8,680.3000000000001L798.3,679.5000000000001L802.1999999999999,680.3000000000001L807.6999999999999,683.8000000000001L817.5999999999999,686.2L820.1999999999999,686.1L823.8,684.3000000000001L826.6999999999999,684.6L834.1999999999999,687.5L837.9,687.7L840.6,685.6L844.7,686.6L846.8000000000001,683.6L850.0000000000001,684L855.5000000000001,683.1L860.7000000000002,685.9L862.1000000000001,690L864.9000000000001,701.1L866.1000000000001,703.5L864.6000000000001,708.2L866.6000000000001,709L908.9000000000001,730.4Z" class="sm_state_VI" name="VIC1" id="VIC1" opacity="1" stroke-opacity="1" stroke-width="1.8900000000000001" stroke-linejoin="round" transform="matrix(0.3204,0,0,0.3204,0,0)" style="-webkit-tap-highlight-color: rgba(0, 0, 0, 0); opacity: 1; cursor: pointer; stroke-opacity: 1; stroke-linejoin: round; fill-opacity: 1;" fill-opacity="1"/><path fill="#88a4bc" stroke="#ffffff" d="M7.7,399.1L7.1000000000000005,400.3L2.4000000000000004,391.8L1.0000000000000004,386L2.8000000000000007,384.6L7.700000000000001,399.1ZM395.5,105.80000000000001L395.5,397.7L395.5,557.2L394.2,557.5L384.4,562.8L372.59999999999997,568L363.09999999999997,570.5L354.29999999999995,573.7L348.49999999999994,574.7L341.09999999999997,575.1L325.29999999999995,573.5L319.9,574.7L308.79999999999995,582.2L303.99999999999994,583.9000000000001L291.49999999999994,591.7L282.09999999999997,594L278.9,595.6L276,599L272.1,608.3L269.70000000000005,612.6999999999999L264.40000000000003,619.8L260.8,622.0999999999999L257.40000000000003,621.8L253.50000000000003,624.1999999999999L250.10000000000002,621.6999999999999L243.00000000000003,621.4L227.60000000000002,624.3L225.40000000000003,620.9L217.30000000000004,620.5L209.30000000000004,619.5L194.80000000000004,620.8L187.90000000000003,622.1999999999999L185.10000000000002,623.4999999999999L180.00000000000003,622.6999999999999L171.30000000000004,623.8L165.90000000000003,627.5999999999999L161.40000000000003,635.4999999999999L156.40000000000003,638.0999999999999L147.80000000000004,638.8L129.20000000000005,654L122.50000000000004,656L115.60000000000004,657.3L104.80000000000004,655.4L98.00000000000004,655.1999999999999L89.50000000000004,653.9999999999999L82.10000000000004,650.2999999999998L76.50000000000004,648.1999999999998L70.10000000000004,640.1999999999998L66.10000000000004,637.1999999999998L59.10000000000004,633.5999999999998L55.400000000000034,634.6999999999998L52.500000000000036,632.1999999999998L51.60000000000004,626.0999999999998L52.10000000000004,610.2999999999998L56.70000000000004,614.0999999999998L61.10000000000004,613.9999999999998L64.90000000000003,610.7999999999997L69.00000000000003,600.7999999999997L68.70000000000003,595.1999999999997L67.40000000000003,585.4999999999997L69.60000000000004,582.5999999999997L70.10000000000004,577.6999999999997L70.40000000000003,562.7999999999997L69.40000000000003,557.2999999999997L63.400000000000034,545.9999999999998L59.500000000000036,536.1999999999998L56.60000000000004,531.7999999999998L54.20000000000004,524.7999999999998L52.20000000000004,514.9999999999999L50.90000000000004,500.9999999999999L51.30000000000004,492.89999999999986L48.80000000000004,484.6999999999999L43.20000000000004,477.09999999999985L42.30000000000004,471.29999999999984L40.90000000000004,467.89999999999986L36.40000000000004,460.9999999999999L31.80000000000004,454.9999999999999L31.00000000000004,452.0999999999999L30.20000000000004,440.0999999999999L28.50000000000004,434.69999999999993L20.600000000000037,420.8999999999999L11.400000000000038,409.0999999999999L8.900000000000038,404.2999999999999L11.700000000000038,403.3999999999999L12.800000000000038,400.5999999999999L16.600000000000037,409.5999999999999L17.500000000000036,412.9999999999999L21.200000000000035,413.9999999999999L23.800000000000036,411.39999999999986L24.200000000000035,406.79999999999984L17.700000000000035,400.39999999999986L15.800000000000034,394.89999999999986L12.900000000000034,389.89999999999986L14.300000000000034,386.79999999999984L16.500000000000036,387.49999999999983L20.700000000000035,393.09999999999985L20.200000000000035,400.1999999999999L22.000000000000036,401.9999999999999L24.800000000000036,398.39999999999986L26.400000000000038,404.6999999999999L30.00000000000004,408.39999999999986L33.10000000000004,405.59999999999985L33.000000000000036,393.59999999999985L27.600000000000037,385.29999999999984L22.70000000000004,374.99999999999983L19.70000000000004,369.8999999999998L17.20000000000004,362.1999999999998L13.500000000000039,355.29999999999984L13.600000000000039,347.09999999999985L15.300000000000038,339.99999999999983L16.80000000000004,336.3999999999998L21.80000000000004,327.99999999999983L22.70000000000004,317.3999999999998L22.100000000000037,311.7999999999998L20.000000000000036,307.19999999999976L26.700000000000035,288.59999999999974L30.800000000000033,285.69999999999976L31.300000000000033,287.89999999999975L30.000000000000032,294.9999999999998L31.800000000000033,298.7999999999998L31.20000000000003,302.9999999999998L35.20000000000003,301.4999999999998L37.00000000000003,299.2999999999998L42.50000000000003,288.69999999999976L45.20000000000003,285.59999999999974L48.80000000000003,283.2999999999997L56.20000000000003,280.4999999999997L63.50000000000003,276.7999999999997L66.90000000000003,273.2999999999997L71.20000000000003,270.2999999999997L77.10000000000004,264.6999999999997L94.10000000000004,254.7999999999997L104.70000000000003,254.4999999999997L108.50000000000003,256.29999999999967L111.30000000000003,256.5999999999997L118.10000000000002,254.4999999999997L128.00000000000003,248.59999999999968L130.70000000000002,247.4999999999997L144.3,244.4999999999997L152.9,237.59999999999968L164.70000000000002,238.69999999999968L169.20000000000002,236.59999999999968L179.70000000000002,235.29999999999967L185.50000000000003,233.59999999999968L196.40000000000003,228.9999999999997L203.80000000000004,224.09999999999968L207.70000000000005,219.9999999999997L211.50000000000006,214.3999999999997L214.80000000000007,206.8999999999997L219.80000000000007,198.09999999999968L224.00000000000006,195.9999999999997L230.30000000000007,189.8999999999997L232.70000000000007,186.7999999999997L229.70000000000007,184.9999999999997L227.50000000000009,174.19999999999968L227.8000000000001,168.09999999999968L230.3000000000001,163.59999999999968L234.50000000000009,159.29999999999967L236.70000000000007,158.59999999999968L241.60000000000008,154.59999999999968L246.4000000000001,145.4999999999997L247.7000000000001,145.69999999999968L251.9000000000001,156.59999999999968L254.9000000000001,160.9999999999997L257.80000000000007,167.59999999999968L261.30000000000007,172.59999999999968L263.30000000000007,165.69999999999968L262.80000000000007,162.19999999999968L264.70000000000005,160.69999999999968L268.00000000000006,163.29999999999967L269.80000000000007,157.99999999999966L267.50000000000006,156.69999999999965L263.30000000000007,151.59999999999965L260.4000000000001,146.99999999999966L262.7000000000001,146.49999999999966L264.3000000000001,143.29999999999967L263.3000000000001,140.19999999999968L266.3000000000001,139.39999999999966L269.5000000000001,144.29999999999967L272.0000000000001,141.79999999999967L276.10000000000014,141.59999999999968L280.3000000000001,144.3999999999997L289.90000000000015,144.3999999999997L289.3000000000001,143.09999999999968L284.10000000000014,143.09999999999968L282.40000000000015,139.69999999999968L283.60000000000014,137.09999999999968L287.10000000000014,137.3999999999997L287.8000000000001,132.8999999999997L285.3000000000001,133.7999999999997L282.3000000000001,128.2999999999997L283.7000000000001,121.5999999999997L286.7000000000001,121.69999999999969L291.3000000000001,116.29999999999968L299.0000000000001,120.29999999999968L299.2000000000001,116.79999999999968L295.2000000000001,116.89999999999968L293.5000000000001,113.09999999999968L296.9000000000001,111.69999999999968L298.0000000000001,109.69999999999968L302.10000000000014,110.19999999999968L306.20000000000016,112.09999999999968L306.8000000000002,109.39999999999968L303.4000000000002,107.59999999999968L301.8000000000002,101.79999999999968L305.70000000000016,97.79999999999968L308.10000000000014,97.79999999999968L314.10000000000014,93.49999999999969L317.5000000000001,95.59999999999968L318.3000000000001,98.79999999999968L322.5000000000001,96.19999999999969L322.4000000000001,93.0999999999997L324.7000000000001,86.5999999999997L326.5000000000001,83.69999999999969L328.3000000000001,87.79999999999968L331.8000000000001,84.19999999999969L335.90000000000015,87.79999999999968L338.60000000000014,85.99999999999969L341.10000000000014,82.59999999999968L341.0000000000001,78.39999999999968L344.10000000000014,77.19999999999968L348.90000000000015,80.29999999999967L353.70000000000016,81.99999999999967L363.00000000000017,88.59999999999967L368.20000000000016,95.99999999999967L375.40000000000015,101.69999999999968L375.90000000000015,102.69999999999968L373.00000000000017,111.29999999999967L374.8000000000002,114.79999999999967L376.6000000000002,114.49999999999967L375.3000000000002,110.09999999999967L382.70000000000016,103.69999999999966L386.60000000000014,103.49999999999966L395.5000000000001,105.79999999999966Z" class="sm_state_WA" name="WA1" id="WA1" opacity="1" stroke-opacity="1" stroke-width="1.8900000000000001" stroke-linejoin="round" transform="matrix(0.3204,0,0,0.3204,0,0)" style="-webkit-tap-highlight-color: rgba(0, 0, 0, 0); opacity: 1; cursor: pointer; stroke-opacity: 1; stroke-linejoin: round; fill-opacity: 1;" fill-opacity="1"/><desc style="-webkit-tap-highlight-color: rgba(0, 0, 0, 0);">Created with Raphaël 2.1.0</desc><defs style="-webkit-tap-highlight-color: rgba(0, 0, 0, 0);"/></svg>